<svg width="303" height="71" viewBox="0 0 303 71" fill="none" xmlns="http://www.w3.org/2000/svg">
<path d="M0.92 35.4C0.92 7.752 20.024 0.647999 35.48 0.647999C50.936 0.647999 70.04 7.752 70.04 35.4C70.04 63.048 50.936 70.152 35.48 70.152C20.024 70.152 0.92 63.048 0.92 35.4ZM16.472 35.4C16.472 52.776 25.112 57.192 35.48 57.192C45.848 57.192 54.488 52.776 54.488 35.4C54.488 18.024 45.848 13.608 35.48 13.608C25.112 13.608 16.472 18.024 16.472 35.4ZM94.9325 1.8H110.485V28.104H146.58V1.8H162.133V69H146.58V40.2H110.485V69H94.9325V1.8ZM212.226 1.8L237.954 69H221.634L216.546 55.368H182.562L177.474 69H161.154L186.882 1.8H212.226ZM187.074 43.272H212.034L201.474 14.76H197.634L187.074 43.272ZM234.091 35.4C234.091 7.752 253.195 0.647999 268.651 0.647999C282.571 0.647999 299.467 6.408 302.635 27.816H286.699C284.779 16.68 277.291 13.608 268.651 13.608C258.283 13.608 249.643 18.024 249.643 35.4C249.643 52.776 258.283 57.192 268.651 57.192C277.291 57.192 284.779 54.12 286.699 42.984H302.635C299.467 64.392 282.571 70.152 268.651 70.152C253.195 70.152 234.091 63.048 234.091 35.4Z" fill="#DA9104"/>
</svg>
