<svg width="305" height="173" viewBox="0 0 305 173" fill="none" xmlns="http://www.w3.org/2000/svg">
<path d="M8.35 77V2.09999H25.684V62.555H61.85V77H8.35ZM63.9649 2.09999H132.445V16.545H81.2989V32.488H119.07V45.97H81.2989V62.555H133.515V77H63.9649V2.09999ZM161.278 77V16.545H135.705V2.09999H204.185V16.545H178.612V77H161.278ZM225.008 1.779C224.366 4.27566 223.546 6.98633 222.547 9.911C221.549 12.7643 220.479 15.6533 219.337 18.578C218.196 21.4313 217.019 24.1777 215.806 26.817H204.357C204.857 24.677 205.356 22.4657 205.855 20.183C206.355 17.9003 206.818 15.6177 207.246 13.335C207.746 10.981 208.174 8.734 208.53 6.59399C208.958 4.454 209.315 2.45666 209.6 0.601995H224.259L225.008 1.779ZM232.263 57.419C243.07 61.271 255.482 63.839 267.145 63.839C278.701 63.839 286.512 60.522 286.512 55.065C286.512 49.715 281.162 47.575 264.684 45.328C242.321 42.225 230.551 36.982 230.551 23.821C230.551 11.088 240.502 0.815999 266.931 0.815999C279.771 0.815999 290.364 3.063 301.064 5.417V21.788C291.006 17.722 278.701 15.261 267.145 15.261C255.589 15.261 248.42 17.722 248.42 23.286C248.42 28.636 253.663 29.706 270.248 32.167C293.36 35.591 304.381 41.369 304.381 54.53C304.381 67.263 293.36 78.391 266.931 78.391C254.091 78.391 242.963 76.144 232.263 73.79V57.419ZM26.433 173V112.545H0.86V98.1H69.34V112.545H43.767V173H26.433ZM119.773 98.1L148.449 173H130.259L124.588 157.806H86.7099L81.0389 173H62.8489L91.5249 98.1H119.773ZM91.7389 144.324H119.559L107.789 112.545H103.509L91.7389 144.324ZM152.704 173V98.1H170.038V158.555H206.204V173H152.704ZM208.319 173V98.1H225.653V127.525H249.086L264.494 98.1H282.149L262.247 134.373L283.219 173H265.029L248.337 141.007H225.653V173H208.319Z" fill="white"/>
</svg>
