<svg width="1582" height="202" viewBox="0 0 1582 202" fill="none" xmlns="http://www.w3.org/2000/svg">
<path d="M0.85 198V4.09999H45.724V160.605H139.35V198H0.85ZM144.825 4.09999H322.105V41.495H189.699V82.768H287.48V117.67H189.699V160.605H324.875V198H144.825V4.09999ZM396.748 198V41.495H330.545V4.09999H507.825V41.495H441.622V198H396.748ZM561.732 3.269C560.07 9.73232 557.946 16.7497 555.361 24.321C552.775 31.7077 550.005 39.1867 547.051 46.758C544.096 54.1447 541.049 61.2543 537.91 68.087H508.271C509.563 62.547 510.856 56.8223 512.149 50.913C513.441 45.0037 514.642 39.0943 515.75 33.185C517.042 27.091 518.15 21.274 519.074 15.734C520.182 10.194 521.105 5.02332 521.844 0.221987H559.793L561.732 3.269ZM580.511 147.309C608.488 157.281 640.62 163.929 670.813 163.929C700.729 163.929 720.95 155.342 720.95 141.215C720.95 127.365 707.1 121.825 664.442 116.008C606.549 107.975 576.079 94.402 576.079 60.331C576.079 27.368 601.84 0.775997 670.259 0.775997C703.499 0.775997 730.922 6.59299 758.622 12.687V55.068C732.584 44.542 700.729 38.171 670.813 38.171C640.897 38.171 622.338 44.542 622.338 58.946C622.338 72.796 635.911 75.566 678.846 81.937C738.678 90.801 767.209 105.759 767.209 139.83C767.209 172.793 738.678 201.601 670.259 201.601C637.019 201.601 608.211 195.784 580.511 189.69V147.309ZM916.383 198V41.495H850.18V4.09999H1027.46V41.495H961.257V198H916.383ZM1158.02 4.09999L1232.26 198H1185.17L1170.48 158.666H1072.43L1057.75 198H1010.66L1084.89 4.09999H1158.02ZM1085.45 123.764H1157.47L1127 41.495H1115.92L1085.45 123.764ZM1243.27 198V4.09999H1288.14V160.605H1381.77V198H1243.27ZM1387.25 198V4.09999H1432.12V80.275H1492.78L1532.67 4.09999H1578.38L1526.85 98.003L1581.15 198H1534.06L1490.84 115.177H1432.12V198H1387.25Z" fill="white"/>
</svg>
