<svg width="315" height="162" viewBox="0 0 315 162" fill="none" xmlns="http://www.w3.org/2000/svg">
<path d="M1.6 53.7C11.7 57.3 23.3 59.7 34.2 59.7C45 59.7 52.3 56.6 52.3 51.5C52.3 46.5 47.3 44.5 31.9 42.4C11 39.5 1.19209e-07 34.6 1.19209e-07 22.3C1.19209e-07 10.4 9.3 0.799999 34 0.799999C46 0.799999 55.9 2.9 65.9 5.1V20.4C56.5 16.6 45 14.3 34.2 14.3C23.4 14.3 16.7 16.6 16.7 21.8C16.7 26.8 21.6 27.8 37.1 30.1C58.7 33.3 69 38.7 69 51C69 62.9 58.7 73.3 34 73.3C22 73.3 11.6 71.2 1.6 69V53.7ZM73 2H89.2V29.4H126.8V2H143V72H126.8V42H89.2V72H73V2ZM145.98 37C145.98 8.2 165.88 0.799999 181.98 0.799999C198.08 0.799999 217.98 8.2 217.98 37C217.98 65.8 198.08 73.2 181.98 73.2C165.88 73.2 145.98 65.8 145.98 37ZM162.18 37C162.18 55.1 171.18 59.7 181.98 59.7C192.78 59.7 201.78 55.1 201.78 37C201.78 18.9 192.78 14.3 181.98 14.3C171.18 14.3 162.18 18.9 162.18 37ZM277.257 2L287.157 58.5H288.257L297.657 2H314.357L302.257 72H274.657L265.257 15.5H264.057L254.657 72H227.057L214.957 2H231.657L241.057 58.5H242.157L252.057 2H277.257ZM2 162V92H31.3C45.1 92 65 93.8 65 112.9C65 123.6 57.9 128.6 49.3 130.9L67 162H49.4L33.8 132.7H31.3H18.2V162H2ZM18.2 120.5H29C39.7 120.5 48.8 120.5 48.8 112.9C48.8 105.5 39.8 105.5 29 105.5H18.2V120.5ZM68.9961 92H132.996V105.5H85.1961V120.4H120.496V133H85.1961V148.5H133.996V162H68.9961V92ZM138.043 92H202.043V105.5H154.243V120.4H189.543V133H154.243V148.5H203.043V162H138.043V92ZM207.09 162V92H223.29V148.5H257.09V162H207.09Z" fill="#DA9104"/>
</svg>
