<svg width="1710" height="444" viewBox="0 0 1710 444" fill="none" xmlns="http://www.w3.org/2000/svg">
<path d="M5.71992 159.1C36.0199 169.9 70.8199 177.1 103.52 177.1C135.92 177.1 157.82 167.8 157.82 152.5C157.82 137.5 142.82 131.5 96.6199 125.2C33.9199 116.5 0.919922 101.8 0.919922 64.9C0.919922 29.2 28.8199 0.399996 102.92 0.399996C138.92 0.399996 168.62 6.69999 198.62 13.3V59.2C170.42 47.8 135.92 40.9 103.52 40.9C71.1199 40.9 51.0199 47.8 51.0199 63.4C51.0199 78.4 65.7199 81.4 112.22 88.3C177.02 97.9 207.92 114.1 207.92 151C207.92 186.7 177.02 217.9 102.92 217.9C66.9199 217.9 35.7199 211.6 5.71992 205V159.1ZM219.92 3.99999H268.52V86.2H381.32V3.99999H429.92V214H381.32V124H268.52V214H219.92V3.99999ZM438.861 109C438.861 22.6 498.561 0.399996 546.861 0.399996C595.161 0.399996 654.861 22.6 654.861 109C654.861 195.4 595.161 217.6 546.861 217.6C498.561 217.6 438.861 195.4 438.861 109ZM487.461 109C487.461 163.3 514.461 177.1 546.861 177.1C579.261 177.1 606.261 163.3 606.261 109C606.261 54.7 579.261 40.9 546.861 40.9C514.461 40.9 487.461 54.7 487.461 109ZM832.691 3.99999L862.391 173.5H865.691L893.891 3.99999H943.991L907.691 214H824.891L796.691 44.5H793.091L764.891 214H682.091L645.791 3.99999H695.891L724.091 173.5H727.391L757.091 3.99999H832.691ZM943.881 214V3.99999H1031.78C1073.18 3.99999 1132.88 9.39999 1132.88 66.7C1132.88 98.8 1111.58 113.8 1085.78 120.7L1138.88 214H1086.08L1039.28 126.1H1031.78H992.481V214H943.881ZM992.481 89.5H1024.88C1056.98 89.5 1084.28 89.5 1084.28 66.7C1084.28 44.5 1057.28 44.5 1024.88 44.5H992.481V89.5ZM1144.87 3.99999H1336.87V44.5H1193.47V89.2H1299.37V127H1193.47V173.5H1339.87V214H1144.87V3.99999ZM1352.01 3.99999H1544.01V44.5H1400.61V89.2H1506.51V127H1400.61V173.5H1547.01V214H1352.01V3.99999ZM1559.15 214V3.99999H1607.75V173.5H1709.15V214H1559.15ZM464.293 230L544.693 440H493.693L477.793 397.4H371.593L355.693 440H304.693L385.093 230H464.293ZM385.693 359.6H463.693L430.693 270.5H418.693L385.693 359.6ZM541.623 440V230H647.523C688.923 230 741.123 235.4 741.123 290.9C741.123 308.3 733.623 320.3 723.123 328.7V330.8C737.823 339.5 748.623 353.3 748.623 375.5C748.623 434 688.923 440 647.523 440H541.623ZM590.223 399.5H640.623C672.723 399.5 700.023 398.6 700.023 374.3C700.023 350.6 677.223 349.7 660.123 349.7H590.223V399.5ZM590.223 313.1H660.123C668.523 313.1 692.523 311.3 692.523 292.4C692.523 272 673.023 270.5 640.623 270.5H590.223V313.1ZM748.553 335C748.553 248.6 808.253 226.4 856.553 226.4C904.853 226.4 964.553 248.6 964.553 335C964.553 421.4 904.853 443.6 856.553 443.6C808.253 443.6 748.553 421.4 748.553 335ZM797.153 335C797.153 389.3 824.153 403.1 856.553 403.1C888.953 403.1 915.953 389.3 915.953 335C915.953 280.7 888.953 266.9 856.553 266.9C824.153 266.9 797.153 280.7 797.153 335ZM973.482 230H1022.08V346.7C1022.08 392 1047.58 403.1 1078.48 403.1C1109.38 403.1 1134.88 392 1134.88 346.7V230H1183.48V353.6C1183.48 422.3 1129.48 443.6 1078.48 443.6C1027.48 443.6 973.482 422.3 973.482 353.6V230ZM1252.12 440V270.5H1180.42V230H1372.42V270.5H1300.72V440H1252.12Z" fill="white"/>
</svg>
