<svg width="323" height="95" viewBox="0 0 323 95" fill="none" xmlns="http://www.w3.org/2000/svg">
<path d="M4.576 29.752C10.232 31.768 16.728 33.112 22.832 33.112C28.88 33.112 32.968 31.376 32.968 28.52C32.968 25.72 30.168 24.6 21.544 23.424C9.84 21.8 3.68 19.056 3.68 12.168C3.68 5.504 8.888 0.127999 22.72 0.127999C29.44 0.127999 34.984 1.304 40.584 2.536V11.104C35.32 8.976 28.88 7.688 22.832 7.688C16.784 7.688 13.032 8.976 13.032 11.888C13.032 14.688 15.776 15.248 24.456 16.536C36.552 18.328 42.32 21.352 42.32 28.24C42.32 34.904 36.552 40.728 22.72 40.728C16 40.728 10.176 39.552 4.576 38.32V29.752ZM44.56 0.799997H53.632V16.144H74.688V0.799997H83.76V40H74.688V23.2H53.632V40H44.56V0.799997ZM85.4291 20.4C85.4291 4.272 96.5731 0.127999 105.589 0.127999C114.605 0.127999 125.749 4.272 125.749 20.4C125.749 36.528 114.605 40.672 105.589 40.672C96.5731 40.672 85.4291 36.528 85.4291 20.4ZM94.5011 20.4C94.5011 30.536 99.5411 33.112 105.589 33.112C111.637 33.112 116.677 30.536 116.677 20.4C116.677 10.264 111.637 7.688 105.589 7.688C99.5411 7.688 94.5011 10.264 94.5011 20.4ZM158.944 0.799997L164.488 32.44H165.104L170.368 0.799997H179.72L172.944 40H157.488L152.224 8.36H151.552L146.288 40H130.832L124.056 0.799997H133.408L138.672 32.44H139.288L144.832 0.799997H158.944ZM179.699 40V0.799997H196.107C203.835 0.799997 214.979 1.808 214.979 12.504C214.979 18.496 211.003 21.296 206.187 22.584L216.099 40H206.243L197.507 23.592H196.107H188.771V40H179.699ZM188.771 16.76H194.819C200.811 16.76 205.907 16.76 205.907 12.504C205.907 8.36 200.867 8.36 194.819 8.36H188.771V16.76ZM217.217 0.799997H253.057V8.36H226.289V16.704H246.057V23.76H226.289V32.44H253.617V40H217.217V0.799997ZM255.883 0.799997H291.723V8.36H264.955V16.704H284.723V23.76H264.955V32.44H292.283V40H255.883V0.799997ZM294.55 40V0.799997H303.622V32.44H322.55V40H294.55ZM32.72 52L48.8 94H38.6L35.42 85.48H14.18L11 94H0.8L16.88 52H32.72ZM17 77.92H32.6L26 60.1H23.6L17 77.92ZM48.1859 94V52H69.3659C77.6459 52 88.0859 53.08 88.0859 64.18C88.0859 67.66 86.5859 70.06 84.4859 71.74V72.16C87.4259 73.9 89.5859 76.66 89.5859 81.1C89.5859 92.8 77.6459 94 69.3659 94H48.1859ZM57.9059 85.9H67.9859C74.4059 85.9 79.8659 85.72 79.8659 80.86C79.8659 76.12 75.3059 75.94 71.8859 75.94H57.9059V85.9ZM57.9059 68.62H71.8859C73.5659 68.62 78.3659 68.26 78.3659 64.48C78.3659 60.4 74.4659 60.1 67.9859 60.1H57.9059V68.62ZM89.5719 73C89.5719 55.72 101.512 51.28 111.172 51.28C120.832 51.28 132.772 55.72 132.772 73C132.772 90.28 120.832 94.72 111.172 94.72C101.512 94.72 89.5719 90.28 89.5719 73ZM99.2919 73C99.2919 83.86 104.692 86.62 111.172 86.62C117.652 86.62 123.052 83.86 123.052 73C123.052 62.14 117.652 59.38 111.172 59.38C104.692 59.38 99.2919 62.14 99.2919 73ZM134.558 52H144.278V75.34C144.278 84.4 149.378 86.62 155.558 86.62C161.738 86.62 166.838 84.4 166.838 75.34V52H176.558V76.72C176.558 90.46 165.758 94.72 155.558 94.72C145.358 94.72 134.558 90.46 134.558 76.72V52ZM190.286 94V60.1H175.946V52H214.346V60.1H200.006V94H190.286Z" fill="white"/>
</svg>
